<mxfile host="Electron" agent="Mozilla/5.0 (Windows NT 10.0; Win64; x64) AppleWebKit/537.36 (KHTML, like Gecko) draw.io/27.0.9 Chrome/134.0.6998.205 Electron/35.4.0 Safari/537.36" version="27.0.9">
  <diagram name="Page-1" id="CTn0UaV7-VGEzKVvjEBO">
    <mxGraphModel dx="983" dy="580" grid="1" gridSize="10" guides="1" tooltips="1" connect="1" arrows="1" fold="1" page="1" pageScale="1" pageWidth="850" pageHeight="1100" math="0" shadow="0">
      <root>
        <mxCell id="0" />
        <mxCell id="1" parent="0" />
        <mxCell id="qKa2N3zLJ_nOPQeqq2Ju-5" style="edgeStyle=orthogonalEdgeStyle;rounded=0;orthogonalLoop=1;jettySize=auto;html=1;exitX=0;exitY=0.5;exitDx=0;exitDy=0;entryX=0.5;entryY=1;entryDx=0;entryDy=0;" edge="1" parent="1" source="qKa2N3zLJ_nOPQeqq2Ju-1" target="qKa2N3zLJ_nOPQeqq2Ju-3">
          <mxGeometry relative="1" as="geometry" />
        </mxCell>
        <mxCell id="qKa2N3zLJ_nOPQeqq2Ju-1" value="&lt;div&gt;(Component)&lt;/div&gt;InteractableComponent" style="rounded=1;whiteSpace=wrap;html=1;" vertex="1" parent="1">
          <mxGeometry x="130" y="230" width="210" height="50" as="geometry" />
        </mxCell>
        <mxCell id="qKa2N3zLJ_nOPQeqq2Ju-6" style="edgeStyle=orthogonalEdgeStyle;rounded=0;orthogonalLoop=1;jettySize=auto;html=1;exitX=1;exitY=0.5;exitDx=0;exitDy=0;entryX=0;entryY=0.5;entryDx=0;entryDy=0;" edge="1" parent="1" source="qKa2N3zLJ_nOPQeqq2Ju-3" target="qKa2N3zLJ_nOPQeqq2Ju-4">
          <mxGeometry relative="1" as="geometry" />
        </mxCell>
        <mxCell id="qKa2N3zLJ_nOPQeqq2Ju-3" value="(Character)&lt;br&gt;PlayerCharacter" style="rounded=1;whiteSpace=wrap;html=1;" vertex="1" parent="1">
          <mxGeometry x="110" y="120" width="120" height="60" as="geometry" />
        </mxCell>
        <mxCell id="qKa2N3zLJ_nOPQeqq2Ju-4" value="(Interface)&lt;br&gt;IInteractableComponent" style="shape=hexagon;perimeter=hexagonPerimeter2;whiteSpace=wrap;html=1;fixedSize=1;" vertex="1" parent="1">
          <mxGeometry x="270" y="110" width="170" height="80" as="geometry" />
        </mxCell>
        <mxCell id="qKa2N3zLJ_nOPQeqq2Ju-30" style="edgeStyle=orthogonalEdgeStyle;rounded=0;orthogonalLoop=1;jettySize=auto;html=1;entryX=0.5;entryY=1;entryDx=0;entryDy=0;" edge="1" parent="1" source="qKa2N3zLJ_nOPQeqq2Ju-7" target="qKa2N3zLJ_nOPQeqq2Ju-1">
          <mxGeometry relative="1" as="geometry" />
        </mxCell>
        <mxCell id="qKa2N3zLJ_nOPQeqq2Ju-7" value="(Interface)&lt;br&gt;IInteractable" style="shape=hexagon;perimeter=hexagonPerimeter2;whiteSpace=wrap;html=1;fixedSize=1;" vertex="1" parent="1">
          <mxGeometry x="270" y="350" width="170" height="80" as="geometry" />
        </mxCell>
        <mxCell id="qKa2N3zLJ_nOPQeqq2Ju-10" style="edgeStyle=orthogonalEdgeStyle;rounded=0;orthogonalLoop=1;jettySize=auto;html=1;entryX=0;entryY=0.5;entryDx=0;entryDy=0;" edge="1" parent="1" source="qKa2N3zLJ_nOPQeqq2Ju-9" target="qKa2N3zLJ_nOPQeqq2Ju-7">
          <mxGeometry relative="1" as="geometry" />
        </mxCell>
        <mxCell id="qKa2N3zLJ_nOPQeqq2Ju-9" value="(Actor)&lt;br&gt;InteractableItem" style="rounded=1;whiteSpace=wrap;html=1;" vertex="1" parent="1">
          <mxGeometry x="110" y="360" width="120" height="60" as="geometry" />
        </mxCell>
        <mxCell id="qKa2N3zLJ_nOPQeqq2Ju-11" value="ItemData" style="swimlane;fontStyle=0;childLayout=stackLayout;horizontal=1;startSize=30;horizontalStack=0;resizeParent=1;resizeParentMax=0;resizeLast=0;collapsible=1;marginBottom=0;whiteSpace=wrap;html=1;" vertex="1" parent="1">
          <mxGeometry x="600" y="500" width="170" height="150" as="geometry" />
        </mxCell>
        <mxCell id="qKa2N3zLJ_nOPQeqq2Ju-12" value="Name" style="text;strokeColor=none;fillColor=none;align=left;verticalAlign=middle;spacingLeft=4;spacingRight=4;overflow=hidden;points=[[0,0.5],[1,0.5]];portConstraint=eastwest;rotatable=0;whiteSpace=wrap;html=1;" vertex="1" parent="qKa2N3zLJ_nOPQeqq2Ju-11">
          <mxGeometry y="30" width="170" height="30" as="geometry" />
        </mxCell>
        <mxCell id="qKa2N3zLJ_nOPQeqq2Ju-13" value="Description" style="text;strokeColor=none;fillColor=none;align=left;verticalAlign=middle;spacingLeft=4;spacingRight=4;overflow=hidden;points=[[0,0.5],[1,0.5]];portConstraint=eastwest;rotatable=0;whiteSpace=wrap;html=1;" vertex="1" parent="qKa2N3zLJ_nOPQeqq2Ju-11">
          <mxGeometry y="60" width="170" height="30" as="geometry" />
        </mxCell>
        <mxCell id="qKa2N3zLJ_nOPQeqq2Ju-14" value="OnUseItem&lt;span style=&quot;background-color: transparent; color: light-dark(rgb(0, 0, 0), rgb(255, 255, 255));&quot;&gt;Component&lt;/span&gt;" style="text;strokeColor=none;fillColor=none;align=left;verticalAlign=middle;spacingLeft=4;spacingRight=4;overflow=hidden;points=[[0,0.5],[1,0.5]];portConstraint=eastwest;rotatable=0;whiteSpace=wrap;html=1;" vertex="1" parent="qKa2N3zLJ_nOPQeqq2Ju-11">
          <mxGeometry y="90" width="170" height="30" as="geometry" />
        </mxCell>
        <mxCell id="qKa2N3zLJ_nOPQeqq2Ju-42" value="MaxInStack" style="text;strokeColor=none;fillColor=none;align=left;verticalAlign=middle;spacingLeft=4;spacingRight=4;overflow=hidden;points=[[0,0.5],[1,0.5]];portConstraint=eastwest;rotatable=0;whiteSpace=wrap;html=1;" vertex="1" parent="qKa2N3zLJ_nOPQeqq2Ju-11">
          <mxGeometry y="120" width="170" height="30" as="geometry" />
        </mxCell>
        <mxCell id="qKa2N3zLJ_nOPQeqq2Ju-18" style="edgeStyle=orthogonalEdgeStyle;rounded=0;orthogonalLoop=1;jettySize=auto;html=1;" edge="1" parent="1" source="qKa2N3zLJ_nOPQeqq2Ju-16" target="qKa2N3zLJ_nOPQeqq2Ju-14">
          <mxGeometry relative="1" as="geometry" />
        </mxCell>
        <mxCell id="qKa2N3zLJ_nOPQeqq2Ju-16" value="(UObject)&lt;br&gt;ItemComponent" style="shape=hexagon;perimeter=hexagonPerimeter2;whiteSpace=wrap;html=1;fixedSize=1;" vertex="1" parent="1">
          <mxGeometry x="870" y="565" width="170" height="80" as="geometry" />
        </mxCell>
        <mxCell id="qKa2N3zLJ_nOPQeqq2Ju-20" value="(UObject)&lt;br&gt;InventoryItem" style="rounded=1;whiteSpace=wrap;html=1;" vertex="1" parent="1">
          <mxGeometry x="680" y="320" width="120" height="60" as="geometry" />
        </mxCell>
        <mxCell id="qKa2N3zLJ_nOPQeqq2Ju-25" style="edgeStyle=orthogonalEdgeStyle;rounded=0;orthogonalLoop=1;jettySize=auto;html=1;exitX=0;exitY=0.5;exitDx=0;exitDy=0;entryX=0.5;entryY=1;entryDx=0;entryDy=0;" edge="1" source="qKa2N3zLJ_nOPQeqq2Ju-26" target="qKa2N3zLJ_nOPQeqq2Ju-28" parent="1">
          <mxGeometry relative="1" as="geometry" />
        </mxCell>
        <mxCell id="qKa2N3zLJ_nOPQeqq2Ju-26" value="&lt;div&gt;(Component)&lt;/div&gt;InventoryComponent" style="rounded=1;whiteSpace=wrap;html=1;" vertex="1" parent="1">
          <mxGeometry x="610" y="230" width="210" height="50" as="geometry" />
        </mxCell>
        <mxCell id="qKa2N3zLJ_nOPQeqq2Ju-27" style="edgeStyle=orthogonalEdgeStyle;rounded=0;orthogonalLoop=1;jettySize=auto;html=1;exitX=1;exitY=0.5;exitDx=0;exitDy=0;entryX=0;entryY=0.5;entryDx=0;entryDy=0;" edge="1" source="qKa2N3zLJ_nOPQeqq2Ju-28" target="qKa2N3zLJ_nOPQeqq2Ju-29" parent="1">
          <mxGeometry relative="1" as="geometry" />
        </mxCell>
        <mxCell id="qKa2N3zLJ_nOPQeqq2Ju-28" value="(Character)&lt;br&gt;PlayerCharacter" style="rounded=1;whiteSpace=wrap;html=1;" vertex="1" parent="1">
          <mxGeometry x="590" y="120" width="120" height="60" as="geometry" />
        </mxCell>
        <mxCell id="qKa2N3zLJ_nOPQeqq2Ju-29" value="(Interface)&lt;br&gt;IInventoryComponent" style="shape=hexagon;perimeter=hexagonPerimeter2;whiteSpace=wrap;html=1;fixedSize=1;" vertex="1" parent="1">
          <mxGeometry x="750" y="110" width="170" height="80" as="geometry" />
        </mxCell>
        <mxCell id="qKa2N3zLJ_nOPQeqq2Ju-36" value="InventoryItem" style="swimlane;fontStyle=1;align=center;verticalAlign=top;childLayout=stackLayout;horizontal=1;startSize=26;horizontalStack=0;resizeParent=1;resizeParentMax=0;resizeLast=0;collapsible=1;marginBottom=0;whiteSpace=wrap;html=1;" vertex="1" parent="1">
          <mxGeometry x="880" y="400" width="160" height="112" as="geometry" />
        </mxCell>
        <mxCell id="qKa2N3zLJ_nOPQeqq2Ju-37" value="+ field: ItemData" style="text;strokeColor=none;fillColor=none;align=left;verticalAlign=top;spacingLeft=4;spacingRight=4;overflow=hidden;rotatable=0;points=[[0,0.5],[1,0.5]];portConstraint=eastwest;whiteSpace=wrap;html=1;" vertex="1" parent="qKa2N3zLJ_nOPQeqq2Ju-36">
          <mxGeometry y="26" width="160" height="26" as="geometry" />
        </mxCell>
        <mxCell id="qKa2N3zLJ_nOPQeqq2Ju-38" value="" style="line;strokeWidth=1;fillColor=none;align=left;verticalAlign=middle;spacingTop=-1;spacingLeft=3;spacingRight=3;rotatable=0;labelPosition=right;points=[];portConstraint=eastwest;strokeColor=inherit;" vertex="1" parent="qKa2N3zLJ_nOPQeqq2Ju-36">
          <mxGeometry y="52" width="160" height="8" as="geometry" />
        </mxCell>
        <mxCell id="qKa2N3zLJ_nOPQeqq2Ju-39" value="+ method(type): OnPickup" style="text;strokeColor=none;fillColor=none;align=left;verticalAlign=top;spacingLeft=4;spacingRight=4;overflow=hidden;rotatable=0;points=[[0,0.5],[1,0.5]];portConstraint=eastwest;whiteSpace=wrap;html=1;" vertex="1" parent="qKa2N3zLJ_nOPQeqq2Ju-36">
          <mxGeometry y="60" width="160" height="26" as="geometry" />
        </mxCell>
        <mxCell id="qKa2N3zLJ_nOPQeqq2Ju-40" value="+ method(type): OnUse" style="text;strokeColor=none;fillColor=none;align=left;verticalAlign=top;spacingLeft=4;spacingRight=4;overflow=hidden;rotatable=0;points=[[0,0.5],[1,0.5]];portConstraint=eastwest;whiteSpace=wrap;html=1;" vertex="1" parent="qKa2N3zLJ_nOPQeqq2Ju-36">
          <mxGeometry y="86" width="160" height="26" as="geometry" />
        </mxCell>
        <mxCell id="qKa2N3zLJ_nOPQeqq2Ju-43" style="edgeStyle=orthogonalEdgeStyle;rounded=0;orthogonalLoop=1;jettySize=auto;html=1;entryX=0.467;entryY=0.94;entryDx=0;entryDy=0;entryPerimeter=0;" edge="1" parent="1" source="qKa2N3zLJ_nOPQeqq2Ju-20" target="qKa2N3zLJ_nOPQeqq2Ju-26">
          <mxGeometry relative="1" as="geometry" />
        </mxCell>
      </root>
    </mxGraphModel>
  </diagram>
</mxfile>
